<svg xmlns="http://www.w3.org/2000/svg" xmlns:xlink="http://www.w3.org/1999/xlink" width="1130" height="282.23"><rect width="1130" height="282.23" rx="0" ry="0" class="a"/><svg height="282.23" viewBox="0 0 113 28.223" width="1130" xmlns="http://www.w3.org/2000/svg" xmlns:xlink="http://www.w3.org/1999/xlink"><style>@keyframes g{0%{transform:translateX(0)}21.9%{transform:translateX(-113px)}22%{transform:translateX(-226px)}31.2%{transform:translateX(-339px)}40.4%{transform:translateX(-452px)}40.5%{transform:translateX(-565px)}49.8%{transform:translateX(-791px)}59%{transform:translateX(-904px)}68.4%{transform:translateX(-1130px)}77.8%{transform:translateX(-1243px)}87.2%{transform:translateX(-1356px)}96.6%{transform:translateX(-1582px)}to{transform:translateX(-1808px)}}.a{fill:#282d35}.c,.d{fill:#71bef2;white-space:pre}.d{fill:#b9c0cb}</style><g font-family="Monaco,Consolas,Menlo,'Bitstream Vera Sans Mono','Powerline Symbols',monospace" font-size="1.67"><defs><symbol id="1"><text x="1.002" y="1.67" class="c">=&gt;</text><text x="4.008" y="1.67" class="c">[internal]</text><text x="15.03" y="1.67" class="c">load</text><text x="20.04" y="1.67" class="c">.dockerignore</text><text x="108.216" y="1.67" class="c">0.1s</text></symbol><symbol id="2"><text x="1.002" y="1.67" class="c">=&gt;</text><text x="4.008" y="1.67" class="c">=&gt;</text><text x="7.014" y="1.67" class="c">transferring</text><text x="20.04" y="1.67" class="c">context:</text><text x="29.058" y="1.67" class="c">2B</text><text x="108.216" y="1.67" class="c">0.0s</text></symbol><symbol id="3"><text x="1.002" y="1.67" class="c">=&gt;</text><text x="4.008" y="1.67" class="c">[internal]</text><text x="15.03" y="1.67" class="c">load</text><text x="20.04" y="1.67" class="c">build</text><text x="26.052" y="1.67" class="c">definition</text><text x="37.074" y="1.67" class="c">from</text><text x="42.084" y="1.67" class="c">Dockerfile</text><text x="108.216" y="1.67" class="c">0.1s</text></symbol><symbol id="4"><text x="1.002" y="1.67" class="c">=&gt;</text><text x="4.008" y="1.67" class="c">=&gt;</text><text x="7.014" y="1.67" class="c">transferring</text><text x="20.04" y="1.67" class="c">dockerfile:</text><text x="32.064" y="1.67" class="c">149B</text><text x="108.216" y="1.67" class="c">0.0s</text></symbol><symbol id="5"><text y="1.67" class="d">[+]</text><text x="4.008" y="1.67" class="d">Building</text><text x="13.026" y="1.67" class="d">0.3s</text><text x="18.036" y="1.67" class="d">(2/3)</text></symbol><symbol id="6"><text x="1.002" y="1.67" class="d">=&gt;</text><text x="4.008" y="1.67" class="d">[internal]</text><text x="15.03" y="1.67" class="d">load</text><text x="20.04" y="1.67" class="d">metadata</text><text x="29.058" y="1.67" class="d">for</text><text x="33.066" y="1.67" class="d">docker.io/library/node:15</text><text x="108.216" y="1.67" class="d">0.2s</text></symbol><symbol id="7"><text y="1.67" class="d">[+]</text><text x="4.008" y="1.67" class="d">Building</text><text x="13.026" y="1.67" class="d">0.5s</text><text x="18.036" y="1.67" class="d">(2/3)</text></symbol><symbol id="8"><text x="1.002" y="1.67" class="d">=&gt;</text><text x="4.008" y="1.67" class="d">[internal]</text><text x="15.03" y="1.67" class="d">load</text><text x="20.04" y="1.67" class="d">metadata</text><text x="29.058" y="1.67" class="d">for</text><text x="33.066" y="1.67" class="d">docker.io/library/node:15</text><text x="108.216" y="1.67" class="d">0.5s</text></symbol><symbol id="9"><text y="1.67" class="d">[+]</text><text x="4.008" y="1.67" class="d">Building</text><text x="13.026" y="1.67" class="d">0.8s</text><text x="18.036" y="1.67" class="d">(2/3)</text></symbol><symbol id="10"><text x="1.002" y="1.67" class="d">=&gt;</text><text x="4.008" y="1.67" class="d">[internal]</text><text x="15.03" y="1.67" class="d">load</text><text x="20.04" y="1.67" class="d">metadata</text><text x="29.058" y="1.67" class="d">for</text><text x="33.066" y="1.67" class="d">docker.io/library/node:15</text><text x="108.216" y="1.67" class="d">1.0s</text></symbol><symbol id="11"><text y="1.67" class="d">[+]</text><text x="4.008" y="1.67" class="d">Building</text><text x="13.026" y="1.67" class="d">1.2s</text><text x="18.036" y="1.67" class="d">(2/3)</text></symbol><symbol id="12"><text y="1.67" class="d">[+]</text><text x="4.008" y="1.67" class="d">Building</text><text x="13.026" y="1.67" class="d">1.3s</text><text x="18.036" y="1.67" class="d">(6/6)</text><text x="24.048" y="1.67" class="d">FINISHED</text></symbol><symbol id="13"><text x="1.002" y="1.67" class="c">=&gt;</text><text x="4.008" y="1.67" class="c">[internal]</text><text x="15.03" y="1.67" class="c">load</text><text x="20.04" y="1.67" class="c">metadata</text><text x="29.058" y="1.67" class="c">for</text><text x="33.066" y="1.67" class="c">docker.io/library/node:15</text><text x="108.216" y="1.67" class="c">1.2s</text></symbol><symbol id="14"><text x="1.002" y="1.67" class="c">=&gt;</text><text x="4.008" y="1.67" class="c">[1/2]</text><text x="10.02" y="1.67" class="c">FROM</text><text x="15.03" y="1.67" class="c">docker.io/library/node:15@sha256:60a3bda0eb90be8fa78830f284671d4c231e91878bbe5bd1c953aedda1</text><text x="108.216" y="1.67" class="c">0.0s</text></symbol><symbol id="15"><text x="1.002" y="1.67" class="c">=&gt;</text><text x="4.008" y="1.67" class="c">CACHED</text><text x="11.022" y="1.67" class="c">[2/2]</text><text x="17.034" y="1.67" class="c">RUN</text><text x="21.042" y="1.67" class="c">npm</text><text x="25.05" y="1.67" class="c">install</text><text x="33.066" y="1.67" class="c">-g</text><text x="36.072" y="1.67" class="c">svg-term-cli</text><text x="108.216" y="1.67" class="c">0.0s</text></symbol><symbol id="a"><path fill="transparent" d="M0 0h113v13H0z"/></symbol><symbol id="b"><path fill="#6f7683" d="M0 0h1.102v2.171H0z"/></symbol></defs><path class="a" d="M0 0h113v28.223H0z"/><g style="animation-duration:1.635773s;animation-iteration-count:infinite;animation-name:g;animation-timing-function:steps(1,end)"><svg width="1921"><svg><use xlink:href="#a"/><use xlink:href="#b" x="-.004"/></svg><svg x="113"><use xlink:href="#a"/></svg><svg x="226"><use xlink:href="#a"/><use xlink:href="#b" x="-.004" y="4.317"/><text y="3.841" class="d">[+]</text><text x="4.008" y="3.841" class="d">Building</text><text x="13.026" y="3.841" class="d">0.0s</text><text x="18.036" y="3.841" class="d">(0/1)</text></svg><svg x="339"><use xlink:href="#a"/><use xlink:href="#b" x="-.004" y="15.172"/><text y="3.841" class="d">[+]</text><text x="4.008" y="3.841" class="d">Building</text><text x="13.026" y="3.841" class="d">0.2s</text><text x="18.036" y="3.841" class="d">(2/3)</text><use xlink:href="#1" y="4.342"/><use xlink:href="#2" y="6.513"/><use xlink:href="#3" y="8.684"/><use xlink:href="#4" y="10.855"/><text x="1.002" y="14.696" class="d">=&gt;</text><text x="4.008" y="14.696" class="d">[internal]</text><text x="15.03" y="14.696" class="d">load</text><text x="20.04" y="14.696" class="d">metadata</text><text x="29.058" y="14.696" class="d">for</text><text x="33.066" y="14.696" class="d">docker.io/library/node:15</text><text x="108.216" y="14.696" class="d">0.1s</text></svg><svg x="452"><use xlink:href="#a"/><use xlink:href="#5" y="2.171"/><use xlink:href="#1" y="4.342"/><use xlink:href="#2" y="6.513"/><use xlink:href="#3" y="8.684"/><use xlink:href="#4" y="10.855"/><use xlink:href="#6" y="13.026"/></svg><svg x="565"><use xlink:href="#a"/><use xlink:href="#b" x="-.004" y="15.172"/><use xlink:href="#5" y="2.171"/><use xlink:href="#1" y="4.342"/><use xlink:href="#2" y="6.513"/><use xlink:href="#3" y="8.684"/><use xlink:href="#4" y="10.855"/><use xlink:href="#6" y="13.026"/></svg><svg x="678"><use xlink:href="#a"/><use xlink:href="#7" y="2.171"/><use xlink:href="#1" y="4.342"/><use xlink:href="#2" y="6.513"/><use xlink:href="#3" y="8.684"/><use xlink:href="#4" y="10.855"/><use xlink:href="#6" y="13.026"/></svg><svg x="791"><use xlink:href="#a"/><use xlink:href="#b" x="-.004" y="15.172"/><use xlink:href="#7" y="2.171"/><use xlink:href="#1" y="4.342"/><use xlink:href="#2" y="6.513"/><use xlink:href="#3" y="8.684"/><use xlink:href="#4" y="10.855"/><text x="1.002" y="14.696" class="d">=&gt;</text><text x="4.008" y="14.696" class="d">[internal]</text><text x="15.03" y="14.696" class="d">load</text><text x="20.04" y="14.696" class="d">metadata</text><text x="29.058" y="14.696" class="d">for</text><text x="33.066" y="14.696" class="d">docker.io/library/node:15</text><text x="108.216" y="14.696" class="d">0.4s</text></svg><svg x="904"><use xlink:href="#a"/><use xlink:href="#b" x="-.004" y="15.172"/><text y="3.841" class="d">[+]</text><text x="4.008" y="3.841" class="d">Building</text><text x="13.026" y="3.841" class="d">0.6s</text><text x="18.036" y="3.841" class="d">(2/3)</text><use xlink:href="#1" y="4.342"/><use xlink:href="#2" y="6.513"/><use xlink:href="#3" y="8.684"/><use xlink:href="#4" y="10.855"/><use xlink:href="#8" y="13.026"/></svg><svg x="1017"><use xlink:href="#a"/><use xlink:href="#9" y="2.171"/><use xlink:href="#1" y="4.342"/><use xlink:href="#2" y="6.513"/><use xlink:href="#3" y="8.684"/><use xlink:href="#4" y="10.855"/><use xlink:href="#8" y="13.026"/></svg><svg x="1130"><use xlink:href="#a"/><use xlink:href="#b" x="-.004" y="15.172"/><use xlink:href="#9" y="2.171"/><use xlink:href="#1" y="4.342"/><use xlink:href="#2" y="6.513"/><use xlink:href="#3" y="8.684"/><use xlink:href="#4" y="10.855"/><text x="1.002" y="14.696" class="d">=&gt;</text><text x="4.008" y="14.696" class="d">[internal]</text><text x="15.03" y="14.696" class="d">load</text><text x="20.04" y="14.696" class="d">metadata</text><text x="29.058" y="14.696" class="d">for</text><text x="33.066" y="14.696" class="d">docker.io/library/node:15</text><text x="108.216" y="14.696" class="d">0.7s</text></svg><svg x="1243"><use xlink:href="#a"/><use xlink:href="#b" x="-.004" y="15.172"/><text y="3.841" class="d">[+]</text><text x="4.008" y="3.841" class="d">Building</text><text x="13.026" y="3.841" class="d">0.9s</text><text x="18.036" y="3.841" class="d">(2/3)</text><use xlink:href="#1" y="4.342"/><use xlink:href="#2" y="6.513"/><use xlink:href="#3" y="8.684"/><use xlink:href="#4" y="10.855"/><text x="1.002" y="14.696" class="d">=&gt;</text><text x="4.008" y="14.696" class="d">[internal]</text><text x="15.03" y="14.696" class="d">load</text><text x="20.04" y="14.696" class="d">metadata</text><text x="29.058" y="14.696" class="d">for</text><text x="33.066" y="14.696" class="d">docker.io/library/node:15</text><text x="108.216" y="14.696" class="d">0.8s</text></svg><svg x="1356"><use xlink:href="#a"/><use xlink:href="#b" x="-.004" y="15.172"/><text y="3.841" class="d">[+]</text><text x="4.008" y="3.841" class="d">Building</text><text x="13.026" y="3.841" class="d">1.1s</text><text x="18.036" y="3.841" class="d">(2/3)</text><use xlink:href="#1" y="4.342"/><use xlink:href="#2" y="6.513"/><use xlink:href="#3" y="8.684"/><use xlink:href="#4" y="10.855"/><use xlink:href="#10" y="13.026"/></svg><svg x="1469"><use xlink:href="#a"/><use xlink:href="#11" y="2.171"/><use xlink:href="#1" y="4.342"/><use xlink:href="#2" y="6.513"/><use xlink:href="#3" y="8.684"/><use xlink:href="#4" y="10.855"/><use xlink:href="#10" y="13.026"/></svg><svg x="1582"><use xlink:href="#a"/><use xlink:href="#b" x="-.004" y="15.172"/><use xlink:href="#11" y="2.171"/><use xlink:href="#1" y="4.342"/><use xlink:href="#2" y="6.513"/><use xlink:href="#3" y="8.684"/><use xlink:href="#4" y="10.855"/><text x="1.002" y="14.696" class="d">=&gt;</text><text x="4.008" y="14.696" class="d">[internal]</text><text x="15.03" y="14.696" class="d">load</text><text x="20.04" y="14.696" class="d">metadata</text><text x="29.058" y="14.696" class="d">for</text><text x="33.066" y="14.696" class="d">docker.io/library/node:15</text><text x="108.216" y="14.696" class="d">1.2s</text></svg><svg x="1695"><use xlink:href="#a"/><use xlink:href="#12" y="2.171"/><use xlink:href="#1" y="4.342"/><use xlink:href="#2" y="6.513"/><use xlink:href="#3" y="8.684"/><use xlink:href="#4" y="10.855"/><use xlink:href="#13" y="13.026"/><use xlink:href="#14" y="15.197"/><use xlink:href="#15" y="17.368"/><text x="1.002" y="21.209" class="c">=&gt;</text><text x="4.008" y="21.209" class="c">expor</text></svg><svg x="1808"><use xlink:href="#a"/><use xlink:href="#b" x="-.004" y="26.027"/><use xlink:href="#12"/><use xlink:href="#1" y="2.171"/><use xlink:href="#2" y="4.342"/><use xlink:href="#3" y="6.513"/><use xlink:href="#4" y="8.684"/><use xlink:href="#13" y="10.855"/><use xlink:href="#14" y="13.026"/><use xlink:href="#15" y="15.197"/><text x="1.002" y="19.038" class="c">=&gt;</text><text x="4.008" y="19.038" class="c">exporting</text><text x="14.028" y="19.038" class="c">to</text><text x="17.034" y="19.038" class="c">image</text><text x="108.216" y="19.038" class="c">0.0s</text><text x="1.002" y="21.209" class="c">=&gt;</text><text x="4.008" y="21.209" class="c">=&gt;</text><text x="7.014" y="21.209" class="c">exporting</text><text x="17.034" y="21.209" class="c">layers</text><text x="108.216" y="21.209" class="c">0.0s</text><text x="1.002" y="23.38" class="c">=&gt;</text><text x="4.008" y="23.38" class="c">=&gt;</text><text x="7.014" y="23.38" class="c">writing</text><text x="15.03" y="23.38" class="c">image</text><text x="21.042" y="23.38" class="c">sha256:f660c37d7e65241b12d55d025b88b7b0000ad0681c8afd279e7eaf84e09efafc</text><text x="108.216" y="23.38" class="c">0.0s</text><text x="1.002" y="25.551" class="c">=&gt;</text><text x="4.008" y="25.551" class="c">=&gt;</text><text x="7.014" y="25.551" class="c">naming</text><text x="14.028" y="25.551" class="c">to</text><text x="17.034" y="25.551" class="c">docker.io/library/svg-term-cli-docker</text><text x="108.216" y="25.551" class="c">0.0s</text></svg></svg></g></g></svg></svg>